{"title":"Wag the Dog (1997) Dustin Hoffman+Robert DeNiro (OPT.NORDSUBS)","uid":4472741,"size":733001292,"categoryP":"video","categoryS":"movies","magnet":"?xt=urn:btih:afda4ecc1f06e0041123da5b639d5d17d38421cb&amp;dn=Wag+the+Dog+%281997%29+Dustin+Hoffman%2BRobert+DeNiro+%28OPT.NORDSUBS%29&amp;tr=udp%3A%2F%2Ftracker.openbittorrent.com%3A80&amp;tr=udp%3A%2F%2Fopen.demonii.com%3A1337&amp;tr=udp%3A%2F%2Ftracker.coppersurfer.tk%3A6969&amp;tr=udp%3A%2F%2Fexodus.desync.com%3A6969","seeders":4,"leechers":0,"uploader":"Kuthumi","files":-1,"time":1225205729,"description":" &lt;a href=&quot;http://www.imdb.com/title/tt0120885/&quot; rel=&quot;nofollow&quot; target=&quot;_NEW&quot;&gt;http://www.imdb.com/title/tt0120885/&lt;/a&gt;\n\nOptional subtitles in separate idx/sub files:\nDanish, Finnish, Norwegian, Swedish\n(Sorry, international friends, the DVD had only these subs.)\n\n\nDirected by Barry Levinson\nWith Anne Heche, Denis Leary and Woody Harrelson\n\nBrilliant satire: A spin-doctor and a Hollywood producer join efforts to &quot;fabricate&quot; a war in order to cover up a presidential sex scandal.\n\nWidescreen XviD 2-pass 720x400, good stereo AC3.\nBurn tested, runs well in both my standalone DivX players.\n\nFormat/Info                      : Audio Video Interleave\nFile size                        : 695 MiB\nDuration                         : 1h 32mn\nOveral bit rate                  : 1044 Kbps\n\nVideo\nFormat                           : MPEG-4 Visual\nFormat profile                   : Streaming Video@L1\nFormat settings, BVOP            : Yes\nFormat settings, QPel            : No\nFormat settings, GMC             : No warppoints\nFormat settings, Matrix          : Default\nMuxing mode                      : Packet Bitstream\nCodec ID                         : XVID\nCodec ID/Hint                    : XviD\nDuration                         : 1h 32mn\nBit rate                         : 907 Kbps\nWidth                            : 720 pixels\nHeight                           : 400 pixels\nDisplay aspect ratio             : 16/9\nFrame rate                       : 25.000 fps\nResolution                       : 8 bits\nColorimetry                      : 4:2:0\nScan type                        : Progressive\nBits/(Pixel*Frame)               : 0.126\nStream size                      : 603 MiB\nWriting library                  : XviD 1.2.0.dev47 (UTC 2006-11-01)\n\nAudio\nFormat                           : MPEG Audio\nFormat version                   : Version 1\nFormat profile                   : Layer 3\nCodec ID                         : 55\nCodec ID/Hint                    : MP3\nDuration                         : 1h 32mn\nBit rate mode                    : Constant\nBit rate                         : 128 Kbps\nMinimum bit rate                 : 128 Kbps\nChannel(s)                       : 2 channels\nSampling rate                    : 48.0 KHz\nResolution                       : 16 bits\nStream size                      : 85.1 MiB\nWriting library                  : LAME3.97 \nEncoding settings                : CBR\n\nSource: PAL native 7.1 GiB (note that PAL/NTSC will give no problems for avi \nfiles).","torrent":{"xt":"urn:btih:afda4ecc1f06e0041123da5b639d5d17d38421cb","amp;dn":"Wag+the+Dog+%281997%29+Dustin+Hoffman%2BRobert+DeNiro+%28OPT.NORDSUBS%29","amp;tr":["udp%3A%2F%2Ftracker.openbittorrent.com%3A80","udp%3A%2F%2Fopen.demonii.com%3A1337","udp%3A%2F%2Ftracker.coppersurfer.tk%3A6969","udp%3A%2F%2Fexodus.desync.com%3A6969"],"infoHash":"afda4ecc1f06e0041123da5b639d5d17d38421cb","infoHashBuffer":{"type":"Buffer","data":[175,218,78,204,31,6,224,4,17,35,218,91,99,157,93,23,211,132,33,203]},"announce":[],"urlList":[]}}